<svg width="40" height="41" viewBox="0 0 40 41" fill="none" xmlns="http://www.w3.org/2000/svg">
<path d="M21.5909 20.4183L26.0441 15.9652C26.2554 15.7542 26.3743 15.4679 26.3745 15.1693C26.3748 14.8707 26.2564 14.5842 26.0455 14.3728C25.8345 14.1615 25.5482 14.0426 25.2496 14.0424C24.951 14.0421 24.6645 14.1605 24.4531 14.3714L20 18.8246L15.5469 14.3714C15.3355 14.1601 15.0489 14.0414 14.75 14.0414C14.4511 14.0414 14.1645 14.1601 13.9531 14.3714C13.7418 14.5828 13.623 14.8694 13.623 15.1683C13.623 15.4672 13.7418 15.7538 13.9531 15.9652L18.4062 20.4183L13.9531 24.8714C13.7418 25.0828 13.623 25.3694 13.623 25.6683C13.623 25.9672 13.7418 26.2538 13.9531 26.4652C14.1645 26.6765 14.4511 26.7953 14.75 26.7953C15.0489 26.7953 15.3355 26.6765 15.5469 26.4652L20 22.0121L24.4531 26.4652C24.6645 26.6765 24.9511 26.7953 25.25 26.7953C25.5489 26.7953 25.8355 26.6765 26.0469 26.4652C26.2582 26.2538 26.3769 25.9672 26.3769 25.6683C26.3769 25.3694 26.2582 25.0828 26.0469 24.8714L21.5909 20.4183Z" fill="#1A1F16"/>
</svg>
