<svg width="94" height="41" viewBox="0 0 94 41" fill="none" xmlns="http://www.w3.org/2000/svg">
<rect y="0.41832" width="94" height="40" rx="10" fill="#1A1F16"/>
<path d="M10.6666 28.9898H11.1666C11.2108 28.9898 11.2532 28.971 11.2845 28.9375C11.3157 28.904 11.3333 28.8586 11.3333 28.8112V21.2C11.3329 21.1716 11.3388 21.1435 11.3506 21.1181C11.3624 21.0926 11.3797 21.0706 11.4011 21.0537C11.4224 21.0369 11.4472 21.0257 11.4734 21.0212C11.4996 21.0167 11.5264 21.0189 11.5516 21.0277C11.934 21.1565 12.331 21.2283 12.7316 21.2411C12.7808 21.2411 12.8275 21.2433 12.8733 21.2433C13.6438 21.2453 14.402 21.0356 15.0754 20.6344C15.1264 20.604 15.1837 20.5881 15.2421 20.5881C15.3004 20.5881 15.3578 20.604 15.4087 20.6344C16.082 21.0356 16.84 21.2453 17.6104 21.2433C18.3765 21.2445 19.1298 21.0324 19.7963 20.6277C19.8477 20.5965 19.9058 20.5801 19.9648 20.5801C20.0239 20.5801 20.082 20.5965 20.1334 20.6277C20.8099 21.0339 21.5729 21.2461 22.3484 21.2438C23.1196 21.2443 23.8776 21.0289 24.5472 20.6188C24.599 20.5872 24.6576 20.5706 24.7172 20.5706C24.7768 20.5706 24.8354 20.5872 24.8872 20.6188C25.5567 21.0289 26.3147 21.2443 27.086 21.2438C27.1314 21.2438 27.1772 21.2438 27.2264 21.2415H27.2289C27.6436 21.2282 28.0543 21.1517 28.4489 21.0143C28.4739 21.0057 28.5004 21.0035 28.5263 21.0079C28.5523 21.0123 28.5769 21.0232 28.5981 21.0398C28.6194 21.0563 28.6366 21.078 28.6486 21.103C28.6605 21.1281 28.6668 21.1558 28.6668 21.184V28.8112C28.6668 28.8586 28.6844 28.904 28.7156 28.9375C28.7469 28.971 28.7893 28.9898 28.8335 28.9898H29.3126C29.6727 28.9898 29.9835 29.2862 29.9993 29.6719C30.0034 29.7683 29.9892 29.8646 29.9575 29.9549C29.9259 30.0453 29.8775 30.1278 29.8153 30.1976C29.7531 30.2673 29.6783 30.3229 29.5955 30.3608C29.5127 30.3987 29.4235 30.4183 29.3335 30.4183H10.6874C10.3274 30.4183 10.0166 30.1219 10.0008 29.7362C9.9967 29.6398 10.0109 29.5435 10.0426 29.4532C10.0742 29.3628 10.1226 29.2803 10.1848 29.2105C10.247 29.1408 10.3218 29.0852 10.4046 29.0473C10.4874 29.0094 10.5765 28.9898 10.6666 28.9898ZM21.3334 25.9541C21.3334 26.0014 21.3509 26.0468 21.3822 26.0803C21.4135 26.1138 21.4559 26.1326 21.5001 26.1326H25.1668C25.211 26.1326 25.2534 26.1138 25.2846 26.0803C25.3159 26.0468 25.3334 26.0014 25.3334 25.9541V23.0969C25.3334 22.9548 25.2808 22.8186 25.187 22.7181C25.0932 22.6176 24.966 22.5612 24.8334 22.5612H21.8334C21.7008 22.5612 21.5736 22.6176 21.4798 22.7181C21.3861 22.8186 21.3334 22.9548 21.3334 23.0969V25.9541ZM14.8333 28.9898H17.8333C17.8776 28.9898 17.9199 28.971 17.9512 28.9375C17.9825 28.904 18 28.8586 18 28.8112V23.0969C18 22.9548 17.9473 22.8186 17.8536 22.7181C17.7598 22.6176 17.6326 22.5612 17.5 22.5612H15.1666C15.034 22.5612 14.9069 22.6176 14.8131 22.7181C14.7193 22.8186 14.6666 22.9548 14.6666 23.0969V28.8112C14.6666 28.8586 14.6842 28.904 14.7155 28.9375C14.7467 28.971 14.7891 28.9898 14.8333 28.9898ZM10.1428 16.5915L11.9312 12.1947C12.3995 11.1157 13.4691 10.4183 14.6562 10.4183H25.3459C26.533 10.4183 27.6026 11.1157 28.071 12.1947L29.8593 16.5915C30.2343 17.4581 29.7389 18.3478 29.7385 18.3482L29.7268 18.3683C29.7064 18.4032 29.6702 18.4576 29.6481 18.4924C29.646 18.4951 29.6443 18.4982 29.6422 18.5014L29.4339 18.7715C29.4261 18.7817 29.4178 18.7913 29.4089 18.8005L29.2006 19.0161L29.1831 19.0322C29.0607 19.1445 28.9298 19.2458 28.7918 19.3349V19.3371C28.3383 19.6314 27.8217 19.7955 27.2918 19.8134H27.1889C26.3871 19.815 25.6145 19.491 25.0268 18.9067L25.013 18.8929C24.9516 18.8309 24.8705 18.7964 24.7861 18.7964C24.7018 18.7964 24.6206 18.8309 24.5593 18.8929L24.5455 18.9067C23.9515 19.49 23.175 19.8136 22.3692 19.8136C21.5635 19.8136 20.787 19.49 20.193 18.9067C20.1313 18.8456 20.0505 18.8117 19.9665 18.8117C19.8825 18.8117 19.8017 18.8456 19.74 18.9067C19.1478 19.4882 18.3741 19.8116 17.5708 19.8135C16.7675 19.8154 15.9925 19.4957 15.3979 18.917C15.3372 18.8568 15.2575 18.8233 15.1748 18.8233C15.092 18.8233 15.0123 18.8568 14.9516 18.917C14.3564 19.4992 13.578 19.8193 12.772 19.8134H12.6683C12.1517 19.7928 11.649 19.6281 11.2099 19.3357C11.1704 19.3103 11.1324 19.2835 11.0941 19.2567C10.798 19.0428 10.5402 18.7735 10.3333 18.4616L10.2608 18.3442C10.2535 18.3323 10.2469 18.3198 10.2408 18.3067C10.1716 18.1558 9.80075 17.3799 10.1428 16.5915Z" fill="white"/>
<path d="M45.6 27.6983C45.02 27.6983 44.44 27.655 43.86 27.5683C43.28 27.4817 42.7433 27.3717 42.25 27.2383C41.7567 27.0983 41.3467 26.9517 41.02 26.7983L41.28 24.7783C41.64 24.9517 42.0733 25.1317 42.58 25.3183C43.0933 25.505 43.6467 25.6617 44.24 25.7883C44.8333 25.915 45.4333 25.9783 46.04 25.9783C46.94 25.9783 47.6533 25.815 48.18 25.4883C48.7133 25.155 48.98 24.6383 48.98 23.9383C48.98 23.4117 48.8467 22.9817 48.58 22.6483C48.3133 22.3083 47.91 22.0183 47.37 21.7783C46.8367 21.5383 46.1667 21.2983 45.36 21.0583C44.5933 20.8317 43.8867 20.565 43.24 20.2583C42.5933 19.945 42.0733 19.5283 41.68 19.0083C41.2933 18.4817 41.1 17.785 41.1 16.9183C41.1 16.1783 41.29 15.525 41.67 14.9583C42.0567 14.385 42.62 13.9383 43.36 13.6183C44.1067 13.2983 45.02 13.1383 46.1 13.1383C47.02 13.1383 47.8633 13.2383 48.63 13.4383C49.4033 13.6383 50.04 13.8583 50.54 14.0983L50.34 16.1183C49.58 15.665 48.8533 15.3417 48.16 15.1483C47.4733 14.955 46.76 14.8583 46.02 14.8583C45.2 14.8583 44.52 15.0117 43.98 15.3183C43.4467 15.625 43.18 16.125 43.18 16.8183C43.18 17.285 43.3 17.6683 43.54 17.9683C43.78 18.2617 44.1367 18.515 44.61 18.7283C45.0833 18.935 45.6733 19.145 46.38 19.3583C47.3533 19.6517 48.19 19.9883 48.89 20.3683C49.59 20.7417 50.1267 21.205 50.5 21.7583C50.8733 22.305 51.06 22.985 51.06 23.7983C51.06 24.3983 50.9467 24.9383 50.72 25.4183C50.4933 25.8983 50.1533 26.3083 49.7 26.6483C49.2467 26.9883 48.6767 27.2483 47.99 27.4283C47.31 27.6083 46.5133 27.6983 45.6 27.6983ZM55.9867 27.6183C55.3667 27.6183 54.8701 27.505 54.4967 27.2783C54.1234 27.0517 53.8501 26.7617 53.6767 26.4083C53.5101 26.0483 53.4267 25.6717 53.4267 25.2783V19.0183H51.7467L51.9067 17.6183H53.4267V15.1983L55.2267 15.0183V17.6183H57.8067V19.0183H55.2267V24.1783C55.2267 24.805 55.2634 25.2583 55.3367 25.5383C55.4101 25.8183 55.5901 25.995 55.8767 26.0683C56.1701 26.1417 56.6401 26.1783 57.2867 26.1783H57.7467L57.6067 27.6183H55.9867ZM63.5469 27.6183C62.5202 27.6183 61.6435 27.3917 60.9169 26.9383C60.1969 26.4783 59.6435 25.865 59.2569 25.0983C58.8769 24.325 58.6869 23.465 58.6869 22.5183C58.6869 21.5717 58.8769 20.715 59.2569 19.9483C59.6435 19.175 60.1969 18.5617 60.9169 18.1083C61.6435 17.6483 62.5202 17.4183 63.5469 17.4183C64.5669 17.4183 65.4402 17.6483 66.1669 18.1083C66.8935 18.5617 67.4469 19.175 67.8269 19.9483C68.2135 20.715 68.4069 21.5717 68.4069 22.5183C68.4069 23.465 68.2135 24.325 67.8269 25.0983C67.4469 25.865 66.8935 26.4783 66.1669 26.9383C65.4402 27.3917 64.5669 27.6183 63.5469 27.6183ZM63.5469 26.0183C64.5202 26.0183 65.2669 25.7117 65.7869 25.0983C66.3069 24.4783 66.5669 23.6183 66.5669 22.5183C66.5669 21.4183 66.3069 20.5617 65.7869 19.9483C65.2669 19.3283 64.5202 19.0183 63.5469 19.0183C62.5802 19.0183 61.8335 19.3283 61.3069 19.9483C60.7869 20.5617 60.5269 21.4183 60.5269 22.5183C60.5269 23.6183 60.7869 24.4783 61.3069 25.0983C61.8335 25.7117 62.5802 26.0183 63.5469 26.0183ZM70.263 27.4183V17.6183H71.743L71.963 19.2383C72.463 18.6183 72.9396 18.1617 73.393 17.8683C73.853 17.5683 74.343 17.4183 74.863 17.4183C75.0296 17.4183 75.183 17.4383 75.323 17.4783L75.143 19.4583C75.0563 19.4383 74.963 19.425 74.863 19.4183C74.7696 19.405 74.663 19.3983 74.543 19.3983C74.023 19.3983 73.543 19.515 73.103 19.7483C72.6696 19.975 72.363 20.225 72.183 20.4983V27.4183H70.263ZM81.0372 27.6183C79.8839 27.6183 78.9139 27.3817 78.1272 26.9083C77.3405 26.435 76.7439 25.8083 76.3372 25.0283C75.9372 24.2417 75.7372 23.3783 75.7372 22.4383C75.7372 21.525 75.9239 20.6883 76.2972 19.9283C76.6772 19.1683 77.2239 18.5617 77.9372 18.1083C78.6572 17.6483 79.5239 17.4183 80.5372 17.4183C81.3505 17.4183 82.0739 17.5817 82.7072 17.9083C83.3472 18.2283 83.8472 18.6983 84.2072 19.3183C84.5739 19.9317 84.7572 20.6783 84.7572 21.5583C84.7572 21.6983 84.7505 21.8517 84.7372 22.0183C84.7305 22.1783 84.7105 22.345 84.6772 22.5183H77.5772C77.6639 23.425 77.8805 24.1317 78.2272 24.6383C78.5739 25.145 79.0105 25.5017 79.5372 25.7083C80.0639 25.915 80.6372 26.0183 81.2572 26.0183C81.7105 26.0183 82.1839 25.9717 82.6772 25.8783C83.1705 25.785 83.6372 25.6383 84.0772 25.4383L84.3172 26.8583C83.9372 27.025 83.4739 27.195 82.9272 27.3683C82.3805 27.535 81.7505 27.6183 81.0372 27.6183ZM77.7372 21.2783H82.8972C82.8972 20.8183 82.8105 20.4183 82.6372 20.0783C82.4639 19.7383 82.2005 19.4783 81.8472 19.2983C81.4939 19.1117 81.0439 19.0183 80.4972 19.0183C79.6972 19.0183 79.0805 19.2183 78.6472 19.6183C78.2205 20.0117 77.9172 20.565 77.7372 21.2783Z" fill="white"/>
</svg>
