<svg width="80" height="41" viewBox="0 0 80 41" fill="none" xmlns="http://www.w3.org/2000/svg">
<path d="M29.3117 16.359C29.1727 16.2189 29.0073 16.1079 28.825 16.0323C28.6428 15.9566 28.4473 15.9179 28.25 15.9183H25.25V15.1683C25.25 13.7759 24.6969 12.4406 23.7123 11.456C22.7277 10.4715 21.3924 9.91833 20 9.91833C18.6076 9.91833 17.2723 10.4715 16.2877 11.456C15.3031 12.4406 14.75 13.7759 14.75 15.1683V15.9183H11.75C11.3522 15.9183 10.9706 16.0764 10.6893 16.3577C10.408 16.639 10.25 17.0205 10.25 17.4183V27.5433C10.25 29.3715 11.7969 30.9183 13.625 30.9183H26.375C27.2593 30.9186 28.1086 30.5729 28.7413 29.9551C29.0596 29.6513 29.3132 29.2862 29.4865 28.8818C29.6599 28.4773 29.7495 28.042 29.75 27.6019V17.4183C29.7506 17.2215 29.7122 17.0266 29.637 16.8448C29.5617 16.6629 29.4512 16.4978 29.3117 16.359ZM16.25 15.1683C16.25 14.1738 16.6451 13.2199 17.3483 12.5167C18.0516 11.8134 19.0054 11.4183 20 11.4183C20.9946 11.4183 21.9484 11.8134 22.6517 12.5167C23.3549 13.2199 23.75 14.1738 23.75 15.1683V15.9183H16.25V15.1683ZM25.25 19.6683C25.25 21.0607 24.6969 22.3961 23.7123 23.3806C22.7277 24.3652 21.3924 24.9183 20 24.9183C18.6076 24.9183 17.2723 24.3652 16.2877 23.3806C15.3031 22.3961 14.75 21.0607 14.75 19.6683V18.9183C14.75 18.7194 14.829 18.5287 14.9697 18.388C15.1103 18.2474 15.3011 18.1683 15.5 18.1683C15.6989 18.1683 15.8897 18.2474 16.0303 18.388C16.171 18.5287 16.25 18.7194 16.25 18.9183V19.6683C16.25 20.6629 16.6451 21.6167 17.3483 22.32C18.0516 23.0232 19.0054 23.4183 20 23.4183C20.9946 23.4183 21.9484 23.0232 22.6517 22.32C23.3549 21.6167 23.75 20.6629 23.75 19.6683V18.9183C23.75 18.7194 23.829 18.5287 23.9697 18.388C24.1103 18.2474 24.3011 18.1683 24.5 18.1683C24.6989 18.1683 24.8897 18.2474 25.0303 18.388C25.171 18.5287 25.25 18.7194 25.25 18.9183V19.6683Z" fill="#1A1F16"/>
<path d="M41.6 27.4183V13.4183H46.02C47.2733 13.4183 48.2567 13.7017 48.97 14.2683C49.6833 14.8283 50.04 15.685 50.04 16.8383C50.04 17.6183 49.87 18.305 49.53 18.8983C49.19 19.4917 48.68 19.8783 48 20.0583L48.28 19.7383C49.2533 19.8983 50.0067 20.2883 50.54 20.9083C51.0733 21.5217 51.34 22.3583 51.34 23.4183C51.34 24.645 50.9433 25.6183 50.15 26.3383C49.3633 27.0583 48.2733 27.4183 46.88 27.4183H41.6ZM43.5 25.6983H46.72C47.4933 25.6983 48.11 25.505 48.57 25.1183C49.03 24.7317 49.26 24.145 49.26 23.3583C49.26 22.4783 49.0233 21.8583 48.55 21.4983C48.0833 21.1383 47.4733 20.9583 46.72 20.9583H43.5V25.6983ZM43.5 19.2383H45.78C46.46 19.2383 47.0133 19.1017 47.44 18.8283C47.8667 18.555 48.08 18.005 48.08 17.1783C48.08 16.3583 47.8667 15.8117 47.44 15.5383C47.0133 15.2583 46.46 15.1183 45.78 15.1183H43.5V19.2383ZM55.4336 27.6183C54.8269 27.6183 54.2969 27.495 53.8436 27.2483C53.3903 27.0017 53.0369 26.665 52.7836 26.2383C52.5369 25.8117 52.4136 25.325 52.4136 24.7783C52.4136 24.225 52.5336 23.7517 52.7736 23.3583C53.0203 22.9583 53.3469 22.6283 53.7536 22.3683C54.1669 22.1017 54.6269 21.8917 55.1336 21.7383C55.6403 21.5783 56.1636 21.465 56.7036 21.3983C57.2503 21.325 57.7736 21.285 58.2736 21.2783C58.2736 20.345 58.0903 19.735 57.7236 19.4483C57.3569 19.1617 56.8269 19.0183 56.1336 19.0183C55.7669 19.0183 55.3736 19.075 54.9536 19.1883C54.5403 19.3017 54.0736 19.5383 53.5536 19.8983L53.2936 18.4383C53.6869 18.1383 54.1769 17.895 54.7636 17.7083C55.3503 17.515 55.9669 17.4183 56.6136 17.4183C57.4403 17.4183 58.1069 17.565 58.6136 17.8583C59.1203 18.145 59.4903 18.6317 59.7236 19.3183C59.9569 20.005 60.0736 20.9383 60.0736 22.1183V24.1183C60.0736 24.585 60.0936 24.9717 60.1336 25.2783C60.1803 25.5783 60.2803 25.805 60.4336 25.9583C60.5936 26.105 60.8469 26.1783 61.1936 26.1783H61.3736L61.0936 27.6183H60.9536C60.3736 27.6183 59.9236 27.5617 59.6036 27.4483C59.2903 27.335 59.0503 27.1717 58.8836 26.9583C58.7169 26.745 58.5669 26.485 58.4336 26.1783C58.0669 26.605 57.6336 26.9517 57.1336 27.2183C56.6336 27.485 56.0669 27.6183 55.4336 27.6183ZM55.7736 26.1783C56.2536 26.1783 56.7169 26.0583 57.1636 25.8183C57.6169 25.5783 57.9869 25.2583 58.2736 24.8583V22.5183C57.3203 22.5517 56.5469 22.645 55.9536 22.7983C55.3669 22.9517 54.9369 23.1817 54.6636 23.4883C54.3903 23.795 54.2536 24.1917 54.2536 24.6783C54.2536 25.205 54.3936 25.5883 54.6736 25.8283C54.9603 26.0617 55.3269 26.1783 55.7736 26.1783ZM66.723 32.4183C65.8296 32.4183 65.0296 32.3083 64.323 32.0883C63.623 31.8683 63.0696 31.5417 62.663 31.1083C62.263 30.675 62.063 30.1383 62.063 29.4983C62.063 28.965 62.213 28.505 62.513 28.1183C62.8196 27.7383 63.2363 27.4317 63.763 27.1983C63.4496 27.045 63.2096 26.865 63.043 26.6583C62.883 26.445 62.803 26.2117 62.803 25.9583C62.803 25.6583 62.893 25.3883 63.073 25.1483C63.2596 24.9017 63.5563 24.6983 63.963 24.5383C63.4163 24.1983 62.9963 23.7417 62.703 23.1683C62.4096 22.5883 62.263 21.945 62.263 21.2383C62.263 20.525 62.423 19.8817 62.743 19.3083C63.063 18.7283 63.523 18.2683 64.123 17.9283C64.7296 17.5883 65.4563 17.4183 66.303 17.4183C66.7563 17.4183 67.183 17.485 67.583 17.6183C67.9896 17.7517 68.363 17.9383 68.703 18.1783C69.003 18.005 69.3563 17.8617 69.763 17.7483C70.1763 17.635 70.6363 17.5783 71.143 17.5783C71.1763 17.5783 71.203 17.5783 71.223 17.5783C71.2496 17.5783 71.2763 17.5783 71.303 17.5783L71.083 18.7783C71.003 18.7783 70.9263 18.7783 70.853 18.7783C70.7796 18.7783 70.703 18.7783 70.623 18.7783C70.5563 18.7783 70.403 18.7883 70.163 18.8083C69.923 18.8283 69.703 18.865 69.503 18.9183C69.7763 19.2383 69.9863 19.5983 70.133 19.9983C70.2863 20.3917 70.363 20.805 70.363 21.2383C70.363 21.985 70.1996 22.655 69.873 23.2483C69.553 23.835 69.0896 24.3017 68.483 24.6483C67.8763 24.9883 67.1496 25.1583 66.303 25.1583C66.063 25.1583 65.833 25.145 65.613 25.1183C65.393 25.085 65.183 25.0383 64.983 24.9783C64.6763 25.0783 64.523 25.2517 64.523 25.4983C64.523 25.645 64.6096 25.775 64.783 25.8883C64.9563 25.995 65.2363 26.0783 65.623 26.1383L68.243 26.5583C69.303 26.725 70.1196 27.0317 70.693 27.4783C71.273 27.925 71.563 28.5583 71.563 29.3783C71.563 30.0583 71.363 30.6217 70.963 31.0683C70.5696 31.5217 70.0096 31.8583 69.283 32.0783C68.5563 32.305 67.703 32.4183 66.723 32.4183ZM66.883 30.8183C67.803 30.8183 68.5096 30.6983 69.003 30.4583C69.4963 30.225 69.743 29.8783 69.743 29.4183C69.743 29.0583 69.5863 28.775 69.273 28.5683C68.9663 28.3617 68.523 28.205 67.943 28.0983L65.153 27.6283C64.7863 27.7883 64.4663 28.0017 64.193 28.2683C63.9196 28.5417 63.783 28.8583 63.783 29.2183C63.783 29.7783 64.063 30.185 64.623 30.4383C65.1896 30.6917 65.943 30.8183 66.883 30.8183ZM66.303 23.7183C67.063 23.7183 67.643 23.4917 68.043 23.0383C68.443 22.5783 68.643 21.985 68.643 21.2583C68.643 20.5583 68.443 19.985 68.043 19.5383C67.643 19.085 67.063 18.8583 66.303 18.8583C65.543 18.8583 64.9663 19.085 64.573 19.5383C64.1796 19.985 63.983 20.5583 63.983 21.2583C63.983 21.985 64.1796 22.5783 64.573 23.0383C64.9663 23.4917 65.543 23.7183 66.303 23.7183Z" fill="#1A1F16"/>
</svg>
