<svg width="108" height="40" viewBox="0 0 108 40" fill="none" xmlns="http://www.w3.org/2000/svg">
<rect width="108" height="40" rx="10" fill="#E5252C"/>
<path d="M15.5 20C15.5 19.8011 15.579 19.6103 15.7197 19.4697C15.8603 19.329 16.0511 19.25 16.25 19.25H23V14.375C23 12.875 21.4161 11.75 20 11.75H12.875C12.179 11.7507 11.5118 12.0275 11.0197 12.5197C10.5275 13.0118 10.2507 13.679 10.25 14.375V25.625C10.2507 26.321 10.5275 26.9882 11.0197 27.4803C11.5118 27.9725 12.179 28.2493 12.875 28.25H20.375C21.071 28.2493 21.7382 27.9725 22.2303 27.4803C22.7225 26.9882 22.9993 26.321 23 25.625V20.75H16.25C16.0511 20.75 15.8603 20.671 15.7197 20.5303C15.579 20.3897 15.5 20.1989 15.5 20ZM29.5302 19.4698L25.7802 15.7198C25.6384 15.5851 25.4495 15.5111 25.254 15.5136C25.0584 15.5161 24.8715 15.5949 24.7332 15.7332C24.5949 15.8715 24.5161 16.0584 24.5136 16.254C24.5111 16.4495 24.5851 16.6384 24.7198 16.7802L27.1892 19.25H23V20.75H27.1892L24.7198 23.2198C24.6473 23.2888 24.5892 23.3716 24.5492 23.4633C24.5091 23.555 24.4878 23.6539 24.4865 23.754C24.4852 23.8541 24.504 23.9534 24.5417 24.0461C24.5794 24.1389 24.6353 24.2231 24.7061 24.2939C24.7769 24.3647 24.8611 24.4206 24.9539 24.4583C25.0466 24.496 25.1459 24.5148 25.246 24.5135C25.3461 24.5122 25.445 24.4909 25.5367 24.4508C25.6284 24.4108 25.7112 24.3527 25.7802 24.2802L29.5302 20.5302C29.6707 20.3895 29.7497 20.1988 29.7497 20C29.7497 19.8012 29.6707 19.6105 29.5302 19.4698Z" fill="white"/>
<path d="M41.6 27V13H43.5V25.28H49.92V27H41.6ZM55.3242 27.2C54.2976 27.2 53.4209 26.9733 52.6942 26.52C51.9742 26.06 51.4209 25.4467 51.0342 24.68C50.6542 23.9067 50.4642 23.0467 50.4642 22.1C50.4642 21.1533 50.6542 20.2967 51.0342 19.53C51.4209 18.7567 51.9742 18.1433 52.6942 17.69C53.4209 17.23 54.2976 17 55.3242 17C56.3442 17 57.2176 17.23 57.9442 17.69C58.6709 18.1433 59.2242 18.7567 59.6042 19.53C59.9909 20.2967 60.1842 21.1533 60.1842 22.1C60.1842 23.0467 59.9909 23.9067 59.6042 24.68C59.2242 25.4467 58.6709 26.06 57.9442 26.52C57.2176 26.9733 56.3442 27.2 55.3242 27.2ZM55.3242 25.6C56.2976 25.6 57.0442 25.2933 57.5642 24.68C58.0842 24.06 58.3442 23.2 58.3442 22.1C58.3442 21 58.0842 20.1433 57.5642 19.53C57.0442 18.91 56.2976 18.6 55.3242 18.6C54.3576 18.6 53.6109 18.91 53.0842 19.53C52.5642 20.1433 52.3042 21 52.3042 22.1C52.3042 23.2 52.5642 24.06 53.0842 24.68C53.6109 25.2933 54.3576 25.6 55.3242 25.6ZM66.0003 32C65.107 32 64.307 31.89 63.6003 31.67C62.9003 31.45 62.347 31.1233 61.9403 30.69C61.5403 30.2567 61.3403 29.72 61.3403 29.08C61.3403 28.5467 61.4903 28.0867 61.7903 27.7C62.097 27.32 62.5136 27.0133 63.0403 26.78C62.727 26.6267 62.487 26.4467 62.3203 26.24C62.1603 26.0267 62.0803 25.7933 62.0803 25.54C62.0803 25.24 62.1703 24.97 62.3503 24.73C62.537 24.4833 62.8336 24.28 63.2403 24.12C62.6936 23.78 62.2736 23.3233 61.9803 22.75C61.687 22.17 61.5403 21.5267 61.5403 20.82C61.5403 20.1067 61.7003 19.4633 62.0203 18.89C62.3403 18.31 62.8003 17.85 63.4003 17.51C64.007 17.17 64.7336 17 65.5803 17C66.0336 17 66.4603 17.0667 66.8603 17.2C67.267 17.3333 67.6403 17.52 67.9803 17.76C68.2803 17.5867 68.6336 17.4433 69.0403 17.33C69.4536 17.2167 69.9136 17.16 70.4203 17.16C70.4536 17.16 70.4803 17.16 70.5003 17.16C70.527 17.16 70.5536 17.16 70.5803 17.16L70.3603 18.36C70.2803 18.36 70.2036 18.36 70.1303 18.36C70.057 18.36 69.9803 18.36 69.9003 18.36C69.8336 18.36 69.6803 18.37 69.4403 18.39C69.2003 18.41 68.9803 18.4467 68.7803 18.5C69.0536 18.82 69.2636 19.18 69.4103 19.58C69.5636 19.9733 69.6403 20.3867 69.6403 20.82C69.6403 21.5667 69.477 22.2367 69.1503 22.83C68.8303 23.4167 68.367 23.8833 67.7603 24.23C67.1536 24.57 66.427 24.74 65.5803 24.74C65.3403 24.74 65.1103 24.7267 64.8903 24.7C64.6703 24.6667 64.4603 24.62 64.2603 24.56C63.9536 24.66 63.8003 24.8333 63.8003 25.08C63.8003 25.2267 63.887 25.3567 64.0603 25.47C64.2336 25.5767 64.5136 25.66 64.9003 25.72L67.5203 26.14C68.5803 26.3067 69.397 26.6133 69.9703 27.06C70.5503 27.5067 70.8403 28.14 70.8403 28.96C70.8403 29.64 70.6403 30.2033 70.2403 30.65C69.847 31.1033 69.287 31.44 68.5603 31.66C67.8336 31.8867 66.9803 32 66.0003 32ZM66.1603 30.4C67.0803 30.4 67.787 30.28 68.2803 30.04C68.7736 29.8067 69.0203 29.46 69.0203 29C69.0203 28.64 68.8636 28.3567 68.5503 28.15C68.2436 27.9433 67.8003 27.7867 67.2203 27.68L64.4303 27.21C64.0636 27.37 63.7436 27.5833 63.4703 27.85C63.197 28.1233 63.0603 28.44 63.0603 28.8C63.0603 29.36 63.3403 29.7667 63.9003 30.02C64.467 30.2733 65.2203 30.4 66.1603 30.4ZM65.5803 23.3C66.3403 23.3 66.9203 23.0733 67.3203 22.62C67.7203 22.16 67.9203 21.5667 67.9203 20.84C67.9203 20.14 67.7203 19.5667 67.3203 19.12C66.9203 18.6667 66.3403 18.44 65.5803 18.44C64.8203 18.44 64.2436 18.6667 63.8503 19.12C63.457 19.5667 63.2603 20.14 63.2603 20.84C63.2603 21.5667 63.457 22.16 63.8503 22.62C64.2436 23.0733 64.8203 23.3 65.5803 23.3ZM76.2813 27.2C75.2546 27.2 74.3779 26.9733 73.6513 26.52C72.9313 26.06 72.3779 25.4467 71.9913 24.68C71.6113 23.9067 71.4213 23.0467 71.4213 22.1C71.4213 21.1533 71.6113 20.2967 71.9913 19.53C72.3779 18.7567 72.9313 18.1433 73.6513 17.69C74.3779 17.23 75.2546 17 76.2813 17C77.3013 17 78.1746 17.23 78.9013 17.69C79.6279 18.1433 80.1813 18.7567 80.5613 19.53C80.9479 20.2967 81.1413 21.1533 81.1413 22.1C81.1413 23.0467 80.9479 23.9067 80.5613 24.68C80.1813 25.4467 79.6279 26.06 78.9013 26.52C78.1746 26.9733 77.3013 27.2 76.2813 27.2ZM76.2813 25.6C77.2546 25.6 78.0013 25.2933 78.5213 24.68C79.0413 24.06 79.3013 23.2 79.3013 22.1C79.3013 21 79.0413 20.1433 78.5213 19.53C78.0013 18.91 77.2546 18.6 76.2813 18.6C75.3146 18.6 74.5679 18.91 74.0413 19.53C73.5213 20.1433 73.2613 21 73.2613 22.1C73.2613 23.2 73.5213 24.06 74.0413 24.68C74.5679 25.2933 75.3146 25.6 76.2813 25.6ZM86.5173 27.2C85.7507 27.2 85.0973 27.0467 84.5573 26.74C84.0173 26.4267 83.604 25.9533 83.3173 25.32C83.0373 24.6867 82.8973 23.88 82.8973 22.9V17.2H84.6973V22.4C84.6973 23.44 84.874 24.2333 85.2273 24.78C85.5873 25.3267 86.1707 25.6 86.9773 25.6C87.5307 25.6 88.044 25.4667 88.5173 25.2C88.9907 24.9333 89.3173 24.5067 89.4973 23.92L89.2373 24.9V17.2H91.0373V27H89.4373L89.0773 25.08L89.5573 25.4C89.2307 26.0067 88.8307 26.46 88.3573 26.76C87.8907 27.0533 87.2773 27.2 86.5173 27.2ZM96.8656 27.2C96.2456 27.2 95.749 27.0867 95.3756 26.86C95.0023 26.6333 94.729 26.3433 94.5556 25.99C94.389 25.63 94.3056 25.2533 94.3056 24.86V18.6H92.6256L92.7856 17.2H94.3056V14.78L96.1056 14.6V17.2H98.6856V18.6H96.1056V23.76C96.1056 24.3867 96.1423 24.84 96.2156 25.12C96.289 25.4 96.469 25.5767 96.7556 25.65C97.049 25.7233 97.519 25.76 98.1656 25.76H98.6256L98.4856 27.2H96.8656Z" fill="white"/>
</svg>
